<svg width="20" height="20" viewBox="0 0 20 20" fill="none" xmlns="http://www.w3.org/2000/svg">
<g clip-path="url(#clip0_449_1394)">
<g clip-path="url(#clip1_449_1394)">
<mask id="mask0_449_1394" style="mask-type:luminance" maskUnits="userSpaceOnUse" x="0" y="0" width="20" height="20">
<path d="M19.763 0.588235H0.939453V19.4118H19.763V0.588235Z" fill="white"/>
</mask>
<g mask="url(#mask0_449_1394)">
<path d="M18.1943 13.8585V16.2114C18.1951 16.4299 18.1504 16.6461 18.0628 16.8462C17.9753 17.0464 17.847 17.226 17.686 17.3736C17.5251 17.5214 17.3351 17.6338 17.1281 17.7038C16.9212 17.7738 16.702 17.7998 16.4844 17.7801C14.071 17.5179 11.7527 16.6932 9.7158 15.3722C7.82076 14.168 6.2141 12.5614 5.00992 10.6664C3.68441 8.62025 2.85952 6.29067 2.60207 3.86636C2.58247 3.64947 2.60825 3.43088 2.67776 3.22449C2.74727 3.01812 2.85899 2.82847 3.00581 2.66764C3.15263 2.50679 3.33133 2.37829 3.53054 2.29029C3.72974 2.20231 3.94508 2.15676 4.16286 2.15655H6.5158C6.89643 2.15281 7.26543 2.2876 7.55405 2.5358C7.84265 2.784 8.03115 3.12867 8.08442 3.50558C8.18374 4.25856 8.36792 4.99791 8.63345 5.70949C8.73896 5.99022 8.76181 6.29532 8.69926 6.58862C8.6367 6.88193 8.49137 7.15115 8.2805 7.3644L7.28442 8.36048C8.40094 10.324 10.0267 11.9498 11.9903 13.0664L12.9864 12.0703C13.1997 11.8594 13.4688 11.7141 13.7621 11.6515C14.0554 11.589 14.3606 11.6118 14.6413 11.7173C15.3528 11.9829 16.0923 12.167 16.8452 12.2664C17.2263 12.3201 17.5741 12.512 17.8228 12.8055C18.0717 13.0992 18.2038 13.4739 18.1943 13.8585Z" stroke="#3C3C3C" stroke-width="1.76471" stroke-linecap="round" stroke-linejoin="round"/>
</g>
</g>
</g>
<defs>
<clipPath id="clip0_449_1394">
<rect width="20" height="20" fill="white"/>
</clipPath>
<clipPath id="clip1_449_1394">
<rect width="20" height="20" fill="white"/>
</clipPath>
</defs>
</svg>
